<svg width="594" height="364" viewBox="0 0 594 364" fill="none" xmlns="http://www.w3.org/2000/svg">
<path fill-rule="evenodd" clip-rule="evenodd" d="M121.181 124.769H174.203C174.823 124.891 175.413 124.952 175.971 124.952C176.528 124.952 177.118 124.952 177.737 124.952C189.148 125.44 199.598 128.49 209.086 134.101C218.574 139.712 223.256 149.106 223.132 162.28C223.007 171.186 220.279 178.017 214.946 182.774C209.613 187.531 202.915 190.948 194.853 193.021L224.248 244.255H186.109L156.529 183.507C157.149 183.627 157.77 183.69 158.389 183.69C159.01 183.69 159.63 183.69 160.25 183.69C161.242 183.69 162.204 183.719 163.134 183.782C164.064 183.842 165.025 183.812 166.017 183.69C168.746 183.69 171.413 183.445 174.017 182.958C176.622 182.469 178.978 181.433 181.086 179.847C183.815 177.895 185.8 175.394 187.039 172.344C188.281 169.295 188.899 166.123 188.899 162.829C188.899 162.097 188.899 161.335 188.899 160.541C188.899 159.749 188.838 158.987 188.714 158.255C187.721 149.837 184.435 144.683 178.854 142.793C173.273 140.902 167.195 139.896 160.623 139.774C159.878 139.774 159.134 139.774 158.389 139.774C157.646 139.774 156.901 139.774 156.157 139.774C155.91 139.774 155.63 139.774 155.32 139.774C155.009 139.774 154.669 139.774 154.297 139.774V244.255H121.181V124.769Z" fill="#00A551"/>
<path fill-rule="evenodd" clip-rule="evenodd" d="M343.397 215.657C337.692 226.514 330.189 234.535 320.886 239.72C311.584 244.904 300.671 247.495 288.144 247.495C271.896 247.495 257.54 242.648 245.076 232.95C232.611 223.251 225.51 210.166 223.774 193.698C221.788 175.401 226.409 159.451 237.633 145.848C248.858 132.247 263.834 124.714 282.563 123.251C295.461 122.153 306.467 123.739 315.584 128.008C324.7 132.278 332.918 139.537 340.235 149.784L324.609 160.762C320.515 153.321 315.429 147.221 309.353 142.464C303.275 137.707 295.461 136.365 285.911 138.438C277.973 140.024 272.113 144.049 268.331 150.515C264.548 156.98 262.036 163.872 260.796 171.192C260.424 173.632 260.175 176.071 260.051 178.512C259.927 180.952 259.866 183.269 259.866 185.466C259.866 187.173 259.958 188.911 260.145 190.68C260.33 192.449 260.548 194.188 260.796 195.895C262.284 205.044 265.85 213.431 271.493 221.054C277.137 228.679 285.229 232.37 295.771 232.126C303.957 231.881 310.655 229.198 315.863 224.072C321.073 218.95 325.413 213.094 328.887 206.506L343.397 215.657Z" fill="#00A551"/>
<path fill-rule="evenodd" clip-rule="evenodd" d="M389.419 226.452C392.023 228.771 394.94 230.508 398.162 231.669C401.388 232.827 404.614 233.162 407.837 232.675C408.706 232.675 409.543 232.552 410.349 232.308C411.155 232.063 411.992 231.759 412.859 231.395C418.441 229.198 422.628 225.63 425.417 220.688C428.209 215.747 430.162 210.533 431.278 205.043C431.402 204.557 431.496 204.038 431.558 203.489C431.62 202.939 431.712 202.421 431.837 201.933C432.334 198.761 432.704 195.469 432.953 192.051C433.202 188.636 433.263 185.221 433.139 181.805C433.016 176.56 432.425 171.375 431.372 166.252C430.318 161.128 428.673 156.31 426.442 151.796C423.961 146.917 420.859 143.349 417.138 141.092C413.418 138.835 409.573 137.767 405.606 137.889C400.396 138.011 395.498 139.841 390.908 143.378C386.318 146.917 383.031 151.796 381.046 158.018C379.683 161.921 378.628 166.739 377.884 172.473C377.141 178.207 376.891 184.061 377.141 190.039C377.39 197.358 378.475 204.373 380.397 211.082C382.318 217.792 385.325 222.976 389.419 226.636L389.419 226.452ZM405.048 122.884C426.504 123.007 442.628 129.563 453.419 142.556C464.208 155.547 469.604 169.789 469.604 185.281C469.604 200.895 464.208 215.169 453.419 228.1C442.628 241.03 426.504 247.495 405.047 247.495C383.589 247.495 367.498 241.03 356.768 228.1C346.041 215.169 340.678 200.895 340.678 185.281C340.678 169.789 346.041 155.547 356.768 142.556C367.498 129.563 383.589 123.068 405.047 123.068L405.048 122.884Z" fill="#00A551"/>
<path fill-rule="evenodd" clip-rule="evenodd" d="M474.37 125.263H506.184L533.531 189.672L560.694 125.263H593.995V244.752H560.136V166.252L527.394 244.752H524.044L492.044 169.728V244.752H474.37V125.263Z" fill="#00A551"/>
<path fill-rule="evenodd" clip-rule="evenodd" d="M216.783 345.578H593.994V363.589H216.783V345.578Z" fill="#00A551"/>
<path fill-rule="evenodd" clip-rule="evenodd" d="M216.783 305.056H593.994V332.071H216.783V305.056Z" fill="#00A551"/>
<path fill-rule="evenodd" clip-rule="evenodd" d="M216.783 255.528H593.994V291.548H216.783V255.528Z" fill="#00A551"/>
<path fill-rule="evenodd" clip-rule="evenodd" d="M216.785 18.01H593.996V0H216.785V18.01Z" fill="#EC1B24"/>
<path fill-rule="evenodd" clip-rule="evenodd" d="M216.783 58.5328H593.994V31.5177H216.783V58.5328Z" fill="#EC1B24"/>
<path fill-rule="evenodd" clip-rule="evenodd" d="M216.783 108.061H593.994V72.0408H216.783V108.061Z" fill="#EC1B24"/>
<path fill-rule="evenodd" clip-rule="evenodd" d="M0 244.273L44.3924 124.996H84.159L124.691 244.273H79.8767L49.6315 153.929L16.5946 244.273H0Z" fill="#00A551"/>
</svg>
